HIERARCHY
ROOT hip
{
  OFFSET -5.44982e-005 106.236 -1.42206
  CHANNELS 6 Xposition Yposition Zposition Zrotation Xrotation Yrotation
  JOINT abdomen
  {
    OFFSET 0 -1.186 -1.50178
    CHANNELS 6 Xposition Yposition Zposition Zrotation Xrotation Yrotation
    JOINT abdomen2
    {
      OFFSET 0 9.964 0.21338
      CHANNELS 6 Xposition Yposition Zposition Zrotation Xrotation Yrotation
      JOINT chest
      {
        OFFSET 0 13.134 -3.25729
        CHANNELS 6 Xposition Yposition Zposition Zrotation Xrotation Yrotation
        JOINT neck
        {
          OFFSET 0 20.686 -1.69049
          CHANNELS 6 Xposition Yposition Zposition Zrotation Xrotation Yrotation
          JOINT head
          {
            OFFSET 0 7.23799 -0.12368
            CHANNELS 6 Xposition Yposition Zposition Zrotation Xrotation Yrotation
            End Site
            {
              OFFSET 0 10.017 2.38717
            }
          }
        }
        JOINT lCollar
        {
          OFFSET 1.70688 20.075 5.0056
          CHANNELS 6 Xposition Yposition Zposition Zrotation Xrotation Yrotation
          JOINT lShldr
          {
            OFFSET 13.6458 -0.047012 -4.84902
            CHANNELS 6 Xposition Yposition Zposition Zrotation Xrotation Yrotation
            JOINT lForeArm
            {
              OFFSET 28.3255 -0.975903 2.28883
              CHANNELS 6 Xposition Yposition Zposition Zrotation Xrotation Yrotation
              JOINT lHand
              {
                OFFSET 22.1583 -0.530035 10.8316
                CHANNELS 6 Xposition Yposition Zposition Zrotation Xrotation Yrotation
                JOINT lThumb1
                {
                  OFFSET 0.785995 0.111999 2.58168
                  CHANNELS 6 Xposition Yposition Zposition Zrotation Xrotation Yrotation
                  JOINT lThumb2
                  {
                    OFFSET 0.3601 -0.878005 4.2331
                    CHANNELS 6 Xposition Yposition Zposition Zrotation Xrotation Yrotation
                    End Site
                    {
                      OFFSET 1.81271 -1.21601 2.2227
                    }
                  }
                }
                JOINT lCarpal1
                {
                  OFFSET 0.9571 1.114 1.76948
                  CHANNELS 6 Xposition Yposition Zposition Zrotation Xrotation Yrotation
                  JOINT lIndex1
                  {
                    OFFSET 4.1246 0.487 4.1451
                    CHANNELS 6 Xposition Yposition Zposition Zrotation Xrotation Yrotation
                    JOINT lIndex2
                    {
                      OFFSET 3.40521 -1.45401 2.7682
                      CHANNELS 6 Xposition Yposition Zposition Zrotation Xrotation Yrotation
                      End Site
                      {
                        OFFSET 1.4531 -1.795 1.2713
                      }
                    }
                  }
                  JOINT lMid1
                  {
                    OFFSET 5.6954 0.209991 2.1184
                    CHANNELS 6 Xposition Yposition Zposition Zrotation Xrotation Yrotation
                    JOINT lMid2
                    {
                      OFFSET 3.9766 -1.53999 2.3863
                      CHANNELS 6 Xposition Yposition Zposition Zrotation Xrotation Yrotation
                      End Site
                      {
                        OFFSET 1.4042 -1.926 1.125
                      }
                    }
                  }
                }
                JOINT lCarpal2
                {
                  OFFSET 2.09559 0.65999 -0.38939
                  CHANNELS 6 Xposition Yposition Zposition Zrotation Xrotation Yrotation
                  JOINT lRing1
                  {
                    OFFSET 5.0395 -0.089997 2.49707
                    CHANNELS 6 Xposition Yposition Zposition Zrotation Xrotation Yrotation
                    JOINT lRing2
                    {
                      OFFSET 3.7921 -1.552 1.4806
                      CHANNELS 6 Xposition Yposition Zposition Zrotation Xrotation Yrotation
                      End Site
                      {
                        OFFSET 1.4655 -1.808 0.9609
                      }
                    }
                  }
                  JOINT lPinky1
                  {
                    OFFSET 4.9141 -1.269 0.35915
                    CHANNELS 6 Xposition Yposition Zposition Zrotation Xrotation Yrotation
                    JOINT lPinky2
                    {
                      OFFSET 3.1477 -1.685 0.84623
                      CHANNELS 6 Xposition Yposition Zposition Zrotation Xrotation Yrotation
                      End Site
                      {
                        OFFSET 0.805505 -1.58499 0.79549
                      }
                    }
                  }
                }
              }
            }
          }
        }
        JOINT rCollar
        {
          OFFSET -1.70688 20.075 5.0056
          CHANNELS 6 Xposition Yposition Zposition Zrotation Xrotation Yrotation
          JOINT rShldr
          {
            OFFSET -13.6458 -0.047012 -4.84902
            CHANNELS 6 Xposition Yposition Zposition Zrotation Xrotation Yrotation
            JOINT rForeArm
            {
              OFFSET -28.3255 -0.975903 2.28883
              CHANNELS 6 Xposition Yposition Zposition Zrotation Xrotation Yrotation
              JOINT rHand
              {
                OFFSET -22.1583 -0.530036 10.8316
                CHANNELS 6 Xposition Yposition Zposition Zrotation Xrotation Yrotation
                JOINT rThumb1
                {
                  OFFSET -0.785995 0.111999 2.58168
                  CHANNELS 6 Xposition Yposition Zposition Zrotation Xrotation Yrotation
                  JOINT rThumb2
                  {
                    OFFSET -0.3601 -0.878005 4.2331
                    CHANNELS 6 Xposition Yposition Zposition Zrotation Xrotation Yrotation
                    End Site
                    {
                      OFFSET -1.81271 -1.21601 2.2227
                    }
                  }
                }
                JOINT rCarpal1
                {
                  OFFSET -0.9571 1.114 1.76948
                  CHANNELS 6 Xposition Yposition Zposition Zrotation Xrotation Yrotation
                  JOINT rIndex1
                  {
                    OFFSET -4.1246 0.487 4.1451
                    CHANNELS 6 Xposition Yposition Zposition Zrotation Xrotation Yrotation
                    JOINT rIndex2
                    {
                      OFFSET -3.40521 -1.45401 2.7682
                      CHANNELS 6 Xposition Yposition Zposition Zrotation Xrotation Yrotation
                      End Site
                      {
                        OFFSET -1.4531 -1.795 1.2713
                      }
                    }
                  }
                  JOINT rMid1
                  {
                    OFFSET -5.6954 0.209991 2.1184
                    CHANNELS 6 Xposition Yposition Zposition Zrotation Xrotation Yrotation
                    JOINT rMid2
                    {
                      OFFSET -3.9766 -1.53999 2.3863
                      CHANNELS 6 Xposition Yposition Zposition Zrotation Xrotation Yrotation
                      End Site
                      {
                        OFFSET -1.4042 -1.926 1.125
                      }
                    }
                  }
                }
                JOINT rCarpal2
                {
                  OFFSET -2.09559 0.65999 -0.38939
                  CHANNELS 6 Xposition Yposition Zposition Zrotation Xrotation Yrotation
                  JOINT rRing1
                  {
                    OFFSET -5.0395 -0.089997 2.49707
                    CHANNELS 6 Xposition Yposition Zposition Zrotation Xrotation Yrotation
                    JOINT rRing2
                    {
                      OFFSET -3.7921 -1.552 1.4806
                      CHANNELS 6 Xposition Yposition Zposition Zrotation Xrotation Yrotation
                      End Site
                      {
                        OFFSET -1.4655 -1.808 0.9609
                      }
                    }
                  }
                  JOINT rPinky1
                  {
                    OFFSET -4.9141 -1.269 0.35915
                    CHANNELS 6 Xposition Yposition Zposition Zrotation Xrotation Yrotation
                    JOINT rPinky2
                    {
                      OFFSET -3.1477 -1.685 0.84623
                      CHANNELS 6 Xposition Yposition Zposition Zrotation Xrotation Yrotation
                      End Site
                      {
                        OFFSET -0.805505 -1.58499 0.79549
                      }
                    }
                  }
                }
              }
            }
          }
        }
      }
    }
  }
  JOINT lThigh
  {
    OFFSET 8.367 -8.2066 0.59823
    CHANNELS 6 Xposition Yposition Zposition Zrotation Xrotation Yrotation
    JOINT lShin
    {
      OFFSET 2.19232 -43.463 -0.493181
      CHANNELS 6 Xposition Yposition Zposition Zrotation Xrotation Yrotation
      JOINT lFoot
      {
        OFFSET 0.733257 -45.8593 -2.64513
        CHANNELS 6 Xposition Yposition Zposition Zrotation Xrotation Yrotation
        End Site
        {
          OFFSET 2.6618 -4.26993 12.3931
        }
      }
    }
  }
  JOINT rThigh
  {
    OFFSET -8.367 -8.2066 0.59823
    CHANNELS 6 Xposition Yposition Zposition Zrotation Xrotation Yrotation
    JOINT rShin
    {
      OFFSET -2.19233 -43.463 -0.493108
      CHANNELS 6 Xposition Yposition Zposition Zrotation Xrotation Yrotation
      JOINT rFoot
      {
        OFFSET -0.733256 -45.8593 -2.64514
        CHANNELS 6 Xposition Yposition Zposition Zrotation Xrotation Yrotation
        End Site
        {
          OFFSET -2.6618 -4.26993 12.3931
        }
      }
    }
  }
}
MOTION
Frames:	4
Frame Time:	0.0333333
3.58131 84.5697 0.553315 1.03573 21.205 -12.5289 -4.44089e-016 -1.186 -1.50178 -4.28247 10.0916 -3.14697 0 9.964 0.21338 3.32021 14.7421 -2.00201 -1.77636e-015 13.134 -3.25729 2.18013 13.8599 -1.89934 -1.77636e-015 20.686 -1.69049 -0.444058 -2.98578 5.84354 1.77636e-015 7.23799 -0.12368 0.464539 -17.1682 17.3373 1.70688 20.075 5.0056 1.57004 -0.639135 0.563361 13.6458 -0.047012 -4.84902 -45.0396 -28.5218 -4.62588 28.3255 -0.975903 2.28883 0.0306083 -6.29012 -79.4901 22.1583 -0.530035 10.8316 -13.6116 -15.6501 -6.91509 0.785995 0.111999 2.58168 -3.18055e-015 -1.59028e-015 -0 0.3601 -0.878005 4.2331 -3.18055e-015 1.59028e-015 -0 0.9571 1.114 1.76948 -3.18055e-015 -1.59028e-015 -0 4.1246 0.487 4.1451 -3.18055e-015 1.59028e-015 -0 3.40521 -1.45401 2.7682 -6.36111e-015 -3.18055e-015 3.18055e-015 5.6954 0.209991 2.1184 -3.18055e-015 1.59028e-015 -0 3.9766 -1.53999 2.3863 -6.36111e-015 -3.18055e-015 3.18055e-015 2.09559 0.65999 -0.38939 -3.18055e-015 -1.59028e-015 -0 5.0395 -0.089997 2.49707 -3.18055e-015 1.59028e-015 -0 3.7921 -1.552 1.4806 -6.36111e-015 -3.18055e-015 3.18055e-015 4.9141 -1.269 0.35915 -3.18055e-015 1.59028e-015 -0 3.1477 -1.685 0.84623 -6.36111e-015 -3.18055e-015 3.18055e-015 -1.70688 20.075 5.0056 6.38726 11.9748 8.17103 -13.6458 -0.047012 -4.84902 39.8415 -47.0309 -8.68208 -28.3255 -0.975903 2.28883 -3.13397 -0.490281 8.52266 -22.1583 -0.530036 10.8316 -6.762 -8.86403 -61.9179 -0.785995 0.111999 2.58168 1.59028e-015 3.57812e-015 6.36111e-015 -0.3601 -0.878005 4.2331 7.95139e-016 -1.59028e-015 -0 -0.9571 1.114 1.76948 1.59028e-015 3.57812e-015 6.36111e-015 -4.1246 0.487 4.1451 7.95139e-016 -1.59028e-015 -0 -3.40521 -1.45401 2.7682 7.95139e-016 -3.97569e-016 -0 -5.6954 0.209991 2.1184 7.95139e-016 -1.59028e-015 -0 -3.9766 -1.53999 2.3863 7.95139e-016 -3.97569e-016 -0 -2.09559 0.65999 -0.38939 1.59028e-015 3.57812e-015 6.36111e-015 -5.0395 -0.089997 2.49707 7.95139e-016 -1.59028e-015 -0 -3.7921 -1.552 1.4806 7.95139e-016 -3.97569e-016 -0 -4.9141 -1.269 0.35915 7.95139e-016 -1.59028e-015 -0 -3.1477 -1.685 0.84623 7.95139e-016 -3.97569e-016 -0 8.367 -8.2066 0.59823 85.17 -74.1921 68.2085 2.19232 -43.463 -0.493181 -36.9071 80.4753 39.1599 0.733257 -45.8593 -2.64513 -8.89701 -7.74234 -12.1855 -8.367 -8.2066 0.59823 -33.9426 -24.151 -38.7266 -2.19233 -43.463 -0.493108 -8.0511 70.3609 5.04165 -0.733256 -45.8593 -2.64514 31.0469 -33.5833 14.26 
-1.58356 82.6199 -0.360009 -0.183679 16.2406 0.739073 -2.22045e-016 -1.186 -1.50178 -1.70513 10.7135 -3.33197 1.77636e-015 9.964 0.21338 4.92286 14.7572 -2.33601 0 13.134 -3.25729 3.15603 13.2648 -2.10767 4.44089e-016 20.686 -1.69049 -0.434246 -2.84227 1.50614 0 7.23799 -0.12368 -1.00471 -16.2255 9.62244 1.70688 20.075 5.0056 -1.59991 0.0595342 -2.04606 13.6458 -0.047012 -4.84902 -49.1175 -24.0239 -4.45501 28.3255 -0.975903 2.28883 0.0666244 -6.26115 -79.108 22.1583 -0.530035 10.8316 -16.6701 -11.9264 -6.61269 0.785995 0.111999 2.58168 -3.18055e-015 1.59028e-015 9.54166e-015 0.3601 -0.878005 4.2331 -4.77083e-015 -1.59028e-015 9.54166e-015 0.9571 1.114 1.76948 -3.18055e-015 1.59028e-015 9.54166e-015 4.1246 0.487 4.1451 -4.77083e-015 -1.59028e-015 9.54166e-015 3.40521 -1.45401 2.7682 2.64834e-031 -1.59028e-015 9.54166e-015 5.6954 0.209991 2.1184 -4.77083e-015 -1.59028e-015 9.54166e-015 3.9766 -1.53999 2.3863 2.64834e-031 -1.59028e-015 9.54166e-015 2.09559 0.65999 -0.38939 -3.18055e-015 1.59028e-015 9.54166e-015 5.0395 -0.089997 2.49707 -4.77083e-015 -1.59028e-015 9.54166e-015 3.7921 -1.552 1.4806 2.64834e-031 -1.59028e-015 9.54166e-015 4.9141 -1.269 0.35915 -4.77083e-015 -1.59028e-015 9.54166e-015 3.1477 -1.685 0.84623 2.64834e-031 -1.59028e-015 9.54166e-015 -1.70688 20.075 5.0056 6.19611 6.52991 5.10348 -13.6458 -0.047012 -4.84902 31.6716 -47.8514 -24.9042 -28.3255 -0.975903 2.28883 -3.54615 -1.09209 17.4455 -22.1583 -0.530036 10.8316 -8.71823 -5.55706 -71.1162 -0.785995 0.111999 2.58168 -1.59028e-015 1.19271e-015 -3.18055e-015 -0.3601 -0.878005 4.2331 -7.95139e-016 -1.59028e-015 3.18055e-015 -0.9571 1.114 1.76948 -1.59028e-015 1.19271e-015 -3.18055e-015 -4.1246 0.487 4.1451 -7.95139e-016 -1.59028e-015 3.18055e-015 -3.40521 -1.45401 2.7682 3.18055e-015 2.38542e-015 -0 -5.6954 0.209991 2.1184 -7.95139e-016 -1.59028e-015 3.18055e-015 -3.9766 -1.53999 2.3863 3.18055e-015 2.38542e-015 -0 -2.09559 0.65999 -0.38939 -1.59028e-015 1.19271e-015 -3.18055e-015 -5.0395 -0.089997 2.49707 -7.95139e-016 -1.59028e-015 3.18055e-015 -3.7921 -1.552 1.4806 3.18055e-015 2.38542e-015 -0 -4.9141 -1.269 0.35915 -7.95139e-016 -1.59028e-015 3.18055e-015 -3.1477 -1.685 0.84623 3.18055e-015 2.38542e-015 -0 8.367 -8.2066 0.59823 62.2158 -81.2734 42.3032 2.19232 -43.463 -0.493181 -33.9075 79.8854 35.8616 0.733257 -45.8593 -2.64513 -10.7168 -5.12597 -14.4915 -8.367 -8.2066 0.59823 -37.4359 -14.719 -50.1679 -2.19233 -43.463 -0.493108 -15.6933 79.1526 12.5562 -0.733256 -45.8593 -2.64514 29.1476 -39.6022 19.541 
-6.43089 80.4287 -0.0543678 -1.4719 10.7505 15.0551 0 -1.186 -1.50178 1.13405 11.3711 -3.57542 -8.88179e-016 9.964 0.21338 6.65712 14.7414 -2.67739 -8.88179e-016 13.134 -3.25729 4.20458 12.5919 -2.28749 8.88178e-016 20.686 -1.69049 -0.427398 -2.5525 -3.2625 -3.33067e-016 7.23799 -0.12368 -2.56716 -15.144 1.14106 1.70688 20.075 5.0056 -5.01934 1.15163 -5.00961 13.6458 -0.047012 -4.84902 -48.2018 -22.6846 -5.71961 28.3255 -0.975903 2.28883 0.167477 -6.16743 -77.8531 22.1583 -0.530035 10.8316 -19.9754 -9.16075 -5.58957 0.785995 0.111999 2.58168 -4.77083e-015 3.18055e-015 -3.18055e-015 0.3601 -0.878005 4.2331 0 0 -0 0.9571 1.114 1.76948 -4.77083e-015 3.18055e-015 -3.18055e-015 4.1246 0.487 4.1451 0 0 -0 3.40521 -1.45401 2.7682 -0 -3.18055e-015 -0 5.6954 0.209991 2.1184 0 0 -0 3.9766 -1.53999 2.3863 -0 -3.18055e-015 -0 2.09559 0.65999 -0.38939 -4.77083e-015 3.18055e-015 -3.18055e-015 5.0395 -0.089997 2.49707 0 0 -0 3.7921 -1.552 1.4806 -0 -3.18055e-015 -0 4.9141 -1.269 0.35915 0 0 -0 3.1477 -1.685 0.84623 -0 -3.18055e-015 -0 -1.70688 20.075 5.0056 5.24257 0.624487 1.59145 -13.6458 -0.047012 -4.84902 22.785 -46.8797 -35.3224 -28.3255 -0.975903 2.28883 -3.57918 -1.17517 18.599 -22.1583 -0.530036 10.8316 -9.88336 -1.45376 -79.3893 -0.785995 0.111999 2.58168 -3.18055e-015 1.59028e-015 -0 -0.3601 -0.878005 4.2331 -2.20695e-031 1.98785e-015 6.36111e-015 -0.9571 1.114 1.76948 -3.18055e-015 1.59028e-015 -0 -4.1246 0.487 4.1451 -2.20695e-031 1.98785e-015 6.36111e-015 -3.40521 -1.45401 2.7682 -1.10348e-031 -1.98785e-015 -3.18055e-015 -5.6954 0.209991 2.1184 -2.20695e-031 1.98785e-015 6.36111e-015 -3.9766 -1.53999 2.3863 -1.10348e-031 -1.98785e-015 -3.18055e-015 -2.09559 0.65999 -0.38939 -3.18055e-015 1.59028e-015 -0 -5.0395 -0.089997 2.49707 -2.20695e-031 1.98785e-015 6.36111e-015 -3.7921 -1.552 1.4806 -1.10348e-031 -1.98785e-015 -3.18055e-015 -4.9141 -1.269 0.35915 -2.20695e-031 1.98785e-015 6.36111e-015 -3.1477 -1.685 0.84623 -1.10348e-031 -1.98785e-015 -3.18055e-015 8.367 -8.2066 0.59823 -3.69527 -83.4531 -27.2227 2.19232 -43.463 -0.493181 -33.9112 79.9144 35.5975 0.733257 -45.8593 -2.64513 -11.8401 -2.97504 -17.8968 -8.367 -8.2066 0.59823 -36.1929 -3.88264 -58.5252 -2.19233 -43.463 -0.493108 -36.5876 84.8814 33.3821 -0.733256 -45.8593 -2.64514 27.8588 -45.9707 21.8284 
-11.1741 78.4452 2.56403 -2.79903 5.37462 28.6584 0 -1.186 -1.50178 3.85786 11.9601 -3.80398 0 9.964 0.21338 8.24732 14.632 -2.93432 8.88178e-016 13.134 -3.25729 5.15506 11.8739 -2.37336 -2.66454e-015 20.686 -1.69049 -0.413842 -2.10517 -7.89907 0 7.23799 -0.12368 -3.91318 -13.9798 -7.17753 1.70688 20.075 5.0056 -8.25497 2.54565 -8.11248 13.6458 -0.047012 -4.84902 -43.7804 -24.652 -6.55737 28.3255 -0.975903 2.28883 0.214302 -6.12092 -77.2316 22.1583 -0.530035 10.8316 -17.5425 -10.1436 -5.93732 0.785995 0.111999 2.58168 4.27387e-015 1.98785e-016 -3.18055e-015 0.3601 -0.878005 4.2331 3.18055e-015 3.67752e-015 -0 0.9571 1.114 1.76948 4.27387e-015 1.98785e-016 -3.18055e-015 4.1246 0.487 4.1451 3.18055e-015 3.67752e-015 -0 3.40521 -1.45401 2.7682 8.94531e-016 -6.26172e-015 -3.18055e-015 5.6954 0.209991 2.1184 3.18055e-015 3.67752e-015 -0 3.9766 -1.53999 2.3863 8.94531e-016 -6.26172e-015 -3.18055e-015 2.09559 0.65999 -0.38939 4.27387e-015 1.98785e-016 -3.18055e-015 5.0395 -0.089997 2.49707 3.18055e-015 3.67752e-015 -0 3.7921 -1.552 1.4806 8.94531e-016 -6.26172e-015 -3.18055e-015 4.9141 -1.269 0.35915 3.18055e-015 3.67752e-015 -0 3.1477 -1.685 0.84623 8.94531e-016 -6.26172e-015 -3.18055e-015 -1.70688 20.075 5.0056 3.23248 -4.97883 -2.25231 -13.6458 -0.047012 -4.84902 16.7735 -43.8413 -39.1585 -28.3255 -0.975903 2.28883 -3.24931 -0.625814 10.6841 -22.1583 -0.530036 10.8316 -10.5364 0.761382 -77.5866 -0.785995 0.111999 2.58168 8.82781e-032 -7.95139e-016 6.36111e-015 -0.3601 -0.878005 4.2331 1.59028e-015 7.95139e-016 -0 -0.9571 1.114 1.76948 8.82781e-032 -7.95139e-016 6.36111e-015 -4.1246 0.487 4.1451 1.59028e-015 7.95139e-016 -0 -3.40521 -1.45401 2.7682 1.59028e-015 -3.97569e-016 -0 -5.6954 0.209991 2.1184 1.59028e-015 7.95139e-016 -0 -3.9766 -1.53999 2.3863 1.59028e-015 -3.97569e-016 -0 -2.09559 0.65999 -0.38939 8.82781e-032 -7.95139e-016 6.36111e-015 -5.0395 -0.089997 2.49707 1.59028e-015 7.95139e-016 -0 -3.7921 -1.552 1.4806 1.59028e-015 -3.97569e-016 -0 -4.9141 -1.269 0.35915 1.59028e-015 7.95139e-016 -0 -3.1477 -1.685 0.84623 1.59028e-015 -3.97569e-016 -0 8.367 -8.2066 0.59823 -32.9775 -80.045 -60.1488 2.19232 -43.463 -0.493181 -37.0449 80.5726 38.484 0.733257 -45.8593 -2.64513 -11.9045 -2.0502 -23.9537 -8.367 -8.2066 0.59823 -28.626 3.8144 -63.5541 -2.19233 -43.463 -0.493108 -68.1743 86.6771 64.9955 -0.733256 -45.8593 -2.64514 25.8741 -52.9648 18.0707 
